Normalized EMG Linear Envelopes
nRows=223
nColumns=4

endheader
time	 med_gas_r	  soleus_r	 tib_ant_r	
3.49294	  0.009051	  0.009846	  0.006238	
3.52621	  0.008969	  0.009904	  0.006446	
3.55948	  0.008918	  0.009985	  0.006710	
3.59274	  0.008917	  0.010103	  0.007090	
3.62601	  0.008974	  0.010244	  0.007598	
3.65927	  0.009081	  0.010364	  0.008189	
3.69254	  0.009207	  0.010424	  0.008793	
3.72581	  0.009299	  0.010407	  0.009362	
3.75907	  0.009309	  0.010322	  0.009904	
3.79234	  0.009222	  0.010187	  0.010456	
3.8256	  0.009068	  0.010023	  0.011020	
3.85887	  0.008900	  0.009848	  0.011527	
3.89214	  0.008768	  0.009685	  0.011871	
3.9254	  0.008691	  0.009563	  0.012007	
3.95867	  0.008675	  0.009501	  0.012015	
3.99194	  0.008723	  0.009508	  0.012059	
4.0252	  0.008850	  0.009579	  0.012282	
4.05847	  0.009059	  0.009706	  0.012698	
4.09173	  0.009334	  0.009879	  0.013186	
4.125	  0.009633	  0.010080	  0.013569	
4.15827	  0.009920	  0.010278	  0.013723	
4.19153	  0.010182	  0.010441	  0.013621	
4.2248	  0.010421	  0.010552	  0.013327	
4.25806	  0.010630	  0.010613	  0.012942	
4.29133	  0.010776	  0.010637	  0.012554	
4.3246	  0.010813	  0.010636	  0.012205	
4.35786	  0.010721	  0.010615	  0.011902	
4.39113	  0.010523	  0.010571	  0.011633	
4.4244	  0.010273	  0.010495	  0.011394	
4.45766	  0.010028	  0.010383	  0.011210	
4.49093	  0.009824	  0.010234	  0.011127	
4.52419	  0.009683	  0.010053	  0.011187	
4.55746	  0.009609	  0.009860	  0.011405	
4.59073	  0.009592	  0.009683	  0.011761	
4.62399	  0.009605	  0.009549	  0.012225	
4.65726	  0.009605	  0.009471	  0.012780	
4.69052	  0.009551	  0.009441	  0.013415	
4.72379	  0.009419	  0.009437	  0.014105	
4.75706	  0.009214	  0.009440	  0.014805	
4.79032	  0.008971	  0.009446	  0.015472	
4.82359	  0.008746	  0.009462	  0.016116	
4.85685	  0.008600	  0.009500	  0.016805	
4.89012	  0.008581	  0.009562	  0.017621	
4.92339	  0.008712	  0.009646	  0.018590	
4.95665	  0.008988	  0.009749	  0.019653	
4.98992	  0.009377	  0.009874	  0.020699	
5.02319	  0.009837	  0.010020	  0.021645	
5.05645	  0.010319	  0.010181	  0.022476	
5.08972	  0.010768	  0.010337	  0.023239	
5.12298	  0.011120	  0.010463	  0.023988	
5.15625	  0.011318	  0.010537	  0.024754	
5.18952	  0.011331	  0.010544	  0.025541	
5.22278	  0.011169	  0.010470	  0.026335	
5.25605	  0.010878	  0.010303	  0.027134	
5.28931	  0.010512	  0.010040	  0.027996	
5.32258	  0.010106	  0.009697	  0.029115	
5.35585	  0.009681	  0.009314	  0.030848	
5.38911	  0.009257	  0.008949	  0.033662	
5.42238	  0.008879	  0.008661	  0.038042	
5.45565	  0.008604	  0.008504	  0.044502	
5.48891	  0.008493	  0.008529	  0.053758	
5.52218	  0.008609	  0.008808	  0.066960	
5.55544	  0.009027	  0.009452	  0.085721	
5.58871	  0.009853	  0.010611	  0.111818	
5.62198	  0.011199	  0.012449	  0.146546	
5.65524	  0.013138	  0.015094	  0.189884	
5.68851	  0.015653	  0.018575	  0.239734	
5.72177	  0.018631	  0.022776	  0.291695	
5.75504	  0.021896	  0.027442	  0.339910	
5.78831	  0.025273	  0.032265	  0.378974	
5.82157	  0.028650	  0.037022	  0.406068	
5.85484	  0.031988	  0.041666	  0.422003	
5.8881	  0.035283	  0.046248	  0.430543	
5.92137	  0.038492	  0.050723	  0.436591	
5.95464	  0.041489	  0.054798	  0.444431	
5.9879	  0.044096	  0.058053	  0.456788	
6.02117	  0.046167	  0.060260	  0.474527	
6.05444	  0.047664	  0.061655	  0.496667	
6.0877	  0.048670	  0.062882	  0.520714	
6.12097	  0.049363	  0.064661	  0.543593	
6.15423	  0.049980	  0.067445	  0.562911	
6.1875	  0.050773	  0.071301	  0.577783	
6.22077	  0.051932	  0.076013	  0.588680	
6.25403	  0.053516	  0.081231	  0.596670	
6.2873	  0.055441	  0.086534	  0.602918	
6.32056	  0.057536	  0.091455	  0.608782	
6.35383	  0.059618	  0.095526	  0.615932	
6.3871	  0.061518	  0.098365	  0.625759	
6.42036	  0.063046	  0.099752	  0.638229	
6.45363	  0.063973	  0.099623	  0.651296	
6.4869	  0.064051	  0.098034	  0.661830	
6.52016	  0.063096	  0.095168	  0.667620	
6.55343	  0.061096	  0.091384	  0.668670	
6.58669	  0.058285	  0.087213	  0.666471	
6.61996	  0.055116	  0.083225	  0.661954	
6.65323	  0.052129	  0.079858	  0.654280	
6.68649	  0.049765	  0.077337	  0.641740	
6.71976	  0.048228	  0.075717	  0.623741	
6.75302	  0.047490	  0.075005	  0.601912	
6.78629	  0.047448	  0.075262	  0.579436	
6.81956	  0.048074	  0.076625	  0.559469	
6.85282	  0.049428	  0.079215	  0.543982	
6.88609	  0.051498	  0.082977	  0.533612	
6.91935	  0.054023	  0.087532	  0.528143	
6.95262	  0.056489	  0.092181	  0.526925	
6.98589	  0.058335	  0.096113	  0.529027	
7.01915	  0.059219	  0.098712	  0.533425	
7.05242	  0.059117	  0.099767	  0.539439	
7.08569	  0.058210	  0.099430	  0.547041	
7.11895	  0.056686	  0.098007	  0.556502	
7.15222	  0.054664	  0.095810	  0.567548	
7.18548	  0.052328	  0.093212	  0.578835	
7.21875	  0.050101	  0.090778	  0.588330	
7.25202	  0.048623	  0.089247	  0.594221	
7.28528	  0.048495	  0.089284	  0.595525	
7.31855	  0.049952	  0.091150	  0.592048	
7.35181	  0.052738	  0.094538	  0.584105	
7.38508	  0.056273	  0.098697	  0.572481	
7.41835	  0.059948	  0.102806	  0.558587	
7.45161	  0.063310	  0.106303	  0.544486	
7.48488	  0.066037	  0.108958	  0.532734	
7.51815	  0.067844	  0.110668	  0.526144	
7.55141	  0.068509	  0.111250	  0.527350	
7.58468	  0.068027	  0.110488	  0.537956	
7.61794	  0.066713	  0.108373	  0.557610	
7.65121	  0.065106	  0.105277	  0.583890	
7.68448	  0.063721	  0.101843	  0.613357	
7.71774	  0.062817	  0.098669	  0.642910	
7.75101	  0.062329	  0.096047	  0.670127	
7.78427	  0.061983	  0.093936	  0.692399	
7.81754	  0.061484	  0.092120	  0.706224	
7.85081	  0.060675	  0.090396	  0.708110	
7.88407	  0.059591	  0.088707	  0.696849	
7.91734	  0.058413	  0.087190	  0.675152	
7.9506	  0.057380	  0.086177	  0.648899	
7.98387	  0.056739	  0.086091	  0.624340	
8.01714	  0.056720	  0.087270	  0.605353	
8.0504	  0.057494	  0.089769	  0.592500	
8.08367	  0.059076	  0.093243	  0.583965	
8.11694	  0.061211	  0.096994	  0.577270	
8.1502	  0.063360	  0.100152	  0.570723	
8.18347	  0.064827	  0.101927	  0.563943	
8.21673	  0.064998	  0.101809	  0.557314	
8.25	  0.063590	  0.099686	  0.550849	
8.28327	  0.060784	  0.095869	  0.543624	
8.31653	  0.057175	  0.091043	  0.534491	
8.3498	  0.053551	  0.086112	  0.523595	
8.38306	  0.050613	  0.081950	  0.513333	
8.41633	  0.048775	  0.079161	  0.507785	
8.4496	  0.048139	  0.077977	  0.510841	
8.48286	  0.048583	  0.078313	  0.524108	
8.51613	  0.049871	  0.079873	  0.545841	
8.5494	  0.051692	  0.082228	  0.571578	
8.58266	  0.053692	  0.084860	  0.596123	
8.61593	  0.055525	  0.087241	  0.615693	
8.64919	  0.056941	  0.088943	  0.629063	
8.68246	  0.057863	  0.089742	  0.637413	
8.71573	  0.058395	  0.089662	  0.643385	
8.74899	  0.058764	  0.088947	  0.649882	
8.78226	  0.059188	  0.087929	  0.658811	
8.81552	  0.059744	  0.086816	  0.669946	
8.84879	  0.060310	  0.085557	  0.680482	
8.88206	  0.060647	  0.083891	  0.685923	
8.91532	  0.060536	  0.081578	  0.682268	
8.94859	  0.059875	  0.078605	  0.668315	
8.98185	  0.058647	  0.075179	  0.646469	
9.01512	  0.056852	  0.071570	  0.621393	
9.04839	  0.054493	  0.067962	  0.597503	
9.08165	  0.051644	  0.064465	  0.577119	
9.11492	  0.048513	  0.061234	  0.560262	
9.14819	  0.045420	  0.058545	  0.545643	
9.18145	  0.042711	  0.056728	  0.531891	
9.21472	  0.040648	  0.056008	  0.518502	
9.24798	  0.039374	  0.056410	  0.506424	
9.28125	  0.038920	  0.057774	  0.497905	
9.31452	  0.039220	  0.059855	  0.495161	
9.34778	  0.040118	  0.062402	  0.498341	
9.38105	  0.041401	  0.065178	  0.504436	
9.41431	  0.042877	  0.067969	  0.508547	
9.44758	  0.044447	  0.070594	  0.506988	
9.48085	  0.046113	  0.072921	  0.499797	
9.51411	  0.047863	  0.074859	  0.490520	
9.54738	  0.049577	  0.076367	  0.483492	
9.58065	  0.051032	  0.077470	  0.480970	
9.61391	  0.052013	  0.078225	  0.482413	
9.64718	  0.052399	  0.078606	  0.485974	
9.68044	  0.052172	  0.078410	  0.490331	
9.71371	  0.051385	  0.077319	  0.495126	
9.74698	  0.050185	  0.075170	  0.500181	
9.78024	  0.048846	  0.072228	  0.504953	
9.81351	  0.047723	  0.069173	  0.509064	
9.84677	  0.047107	  0.066750	  0.513066	
9.88004	  0.047112	  0.065359	  0.518111	
9.91331	  0.047677	  0.064937	  0.524653	
9.94657	  0.048669	  0.065169	  0.531717	
9.97984	  0.049956	  0.065750	  0.537828	
10.0131	  0.051370	  0.066450	  0.542650	
10.0464	  0.052664	  0.067035	  0.547373	
10.0796	  0.053546	  0.067250	  0.553221	
10.1129	  0.053818	  0.066936	  0.559522	
10.1462	  0.053477	  0.066134	  0.563312	
10.1794	  0.052687	  0.065023	  0.560905	
10.2127	  0.051621	  0.063752	  0.550082	
10.246	  0.050350	  0.062326	  0.531211	
10.2792	  0.048856	  0.060682	  0.506861	
10.3125	  0.047155	  0.058869	  0.480675	
10.3458	  0.045374	  0.057123	  0.456366	
10.379	  0.043709	  0.055754	  0.437026	
10.4123	  0.042299	  0.054932	  0.424544	
10.4456	  0.041154	  0.054550	  0.419125	
10.4788	  0.040165	  0.054270	  0.419165	
10.5121	  0.039172	  0.053701	  0.421652	
10.5454	  0.038045	  0.052595	  0.423037	
10.5786	  0.036745	  0.050947	  0.420312	
10.6119	  0.035367	  0.048979	  0.411919	
10.6452	  0.034119	  0.047025	  0.398091	
10.6784	  0.033222	  0.045389	  0.380495	
10.7117	  0.032793	  0.044241	  0.361396	
10.745	  0.032767	  0.043593	  0.342844	
10.7782	  0.032926	  0.043342	  0.326213	
10.8115	  0.033014	  0.043339	  0.312138	
10.8448	  0.032879	  0.043460	  0.300696	
10.878	  0.032546	  0.043634	  0.291655	
